<?xml version="1.0" encoding="UTF-8" standalone="no"?>
<svg
   viewBox="0 0 55 60"
   width="110"
   height="121"
   version="1.1"
   xmlns="http://www.w3.org/2000/svg"
   xmlns:svg="http://www.w3.org/2000/svg">
  <rect
     x="4"
     y="17"
     width="48"
     height="40"
     rx="16"
     fill="#ee99aa"
     stroke="#441177"
     stroke-width="3"/>
  <polygon
     points="16,16 24,4 32,16 "
     stroke="#441177"
     stroke-width="3"
     transform="translate(-2.2,0.5)" />
  <polygon
     points="48,16 56,4 40,16 "
     fill="#eeaaff"
     stroke="#441177"
     stroke-width="3"
     transform="translate(-5.5,0.5)" />
  <polygon
     points="18,15 24,6 30,15 "
     fill="#ee99aa"
     transform="translate(-2.5,0.7)"
     />
  <polygon
     points="43,15 53,7 48,15 "
     fill="#ee99aa"
     transform="translate(-5.5,0.5)" />
  <path
     d="m 50.5,48.5 q 6,6 -2,10"
     stroke="#441177"
     stroke-width="4"
     fill="none"
     stroke-linecap="round" />
  <path
     d="m 49,44.5 q 9,11 -1,14"
     stroke="#ee99aa"
     stroke-width="2.4"
     fill="none"
     stroke-linecap="round" />
  <ellipse
     cx="26"
     cy="41"
     rx="1.2"
     ry="0.8"
     fill="#cc44bb"
     stroke="#441177"
     stroke-width="1"
     />
  <path
     d="m 24,44.5 q 2.5,2 5,0"
     stroke="#441177"
     stroke-width="2.2"
     fill="none"
     stroke-linecap="round" />
  <path
     d="m 19.5,43.5 q -3,1 -5,0"
     stroke="#441177"
     stroke-width="2"
     fill="none"
     stroke-linecap="round" />
  <path
     d="m 33.5,43.5 q 3,1 5,0"
     stroke="#441177"
     stroke-width="2"
     fill="none"
     stroke-linecap="round" />
  <ellipse
     cx="17"
     cy="47"
     rx="2.2"
     ry="0.8"
     fill="#ff4488"
     opacity="0.9" />
  <ellipse
     cx="36"
     cy="47"
     rx="2.2"
     ry="0.8"
     fill="#ff4488"
     opacity="0.9" />
  <path
     d="m 9.078318,28.157703 q 0,-2.645035 2.645035,-2.645035 2.645035,0 2.645035,2.645035 0,2.645035 -2.645035,5.290071 -2.645035,-2.645036 -2.645035,-5.290071 z"
     fill="#33ddbb"
     stroke="#441177"
     stroke-width="1" />
</svg>
